<?xml version="1.0" encoding="utf-8" standalone="no"?>
<!DOCTYPE svg PUBLIC "-//W3C//DTD SVG 1.1//EN" "http://www.w3.org/Graphics/SVG/1.1/DTD/svg11.dtd">

<svg style="stroke-linejoin:round; stroke:black; stroke-width:0.5pt; text-anchor:middle; fill:none" xmlns="http://www.w3.org/2000/svg" height="297mm" width="210mm" version="1.1" xmlns:xlink="http://www.w3.org/1999/xlink" font-family="Helvetica, Arial, FreeSans, Sans, sans, sans-serif" viewBox="0 0 210 297">

<g>

<rect width="30.0" stroke="none" y="13.5" x="15.0" fill="black" height="30.0" />

<rect width="30.0" stroke="none" y="73.5" x="15.0" fill="black" height="30.0" />

<rect width="30.0" stroke="none" y="133.5" x="15.0" fill="black" height="30.0" />

<rect width="30.0" stroke="none" y="193.5" x="15.0" fill="black" height="30.0" />

<rect width="30.0" stroke="none" y="253.5" x="15.0" fill="black" height="30.0" />

<rect width="30.0" stroke="none" y="43.5" x="45.0" fill="black" height="30.0" />

<rect width="30.0" stroke="none" y="103.5" x="45.0" fill="black" height="30.0" />

<rect width="30.0" stroke="none" y="163.5" x="45.0" fill="black" height="30.0" />

<rect width="30.0" stroke="none" y="223.5" x="45.0" fill="black" height="30.0" />

<rect width="30.0" stroke="none" y="13.5" x="75.0" fill="black" height="30.0" />

<rect width="30.0" stroke="none" y="73.5" x="75.0" fill="black" height="30.0" />

<rect width="30.0" stroke="none" y="133.5" x="75.0" fill="black" height="30.0" />

<rect width="30.0" stroke="none" y="193.5" x="75.0" fill="black" height="30.0" />

<rect width="30.0" stroke="none" y="253.5" x="75.0" fill="black" height="30.0" />

<rect width="30.0" stroke="none" y="43.5" x="105.0" fill="black" height="30.0" />

<rect width="30.0" stroke="none" y="103.5" x="105.0" fill="black" height="30.0" />

<rect width="30.0" stroke="none" y="163.5" x="105.0" fill="black" height="30.0" />

<rect width="30.0" stroke="none" y="223.5" x="105.0" fill="black" height="30.0" />

<rect width="30.0" stroke="none" y="13.5" x="135.0" fill="black" height="30.0" />

<rect width="30.0" stroke="none" y="73.5" x="135.0" fill="black" height="30.0" />

<rect width="30.0" stroke="none" y="133.5" x="135.0" fill="black" height="30.0" />

<rect width="30.0" stroke="none" y="193.5" x="135.0" fill="black" height="30.0" />

<rect width="30.0" stroke="none" y="253.5" x="135.0" fill="black" height="30.0" />

<rect width="30.0" stroke="none" y="43.5" x="165.0" fill="black" height="30.0" />

<rect width="30.0" stroke="none" y="103.5" x="165.0" fill="black" height="30.0" />

<rect width="30.0" stroke="none" y="163.5" x="165.0" fill="black" height="30.0" />

<rect width="30.0" stroke="none" y="223.5" x="165.0" fill="black" height="30.0" />

</g>

</svg>

